<?xml version="1.0" standalone="no"?>
<!DOCTYPE svg PUBLIC "-//W3C//DTD SVG 20010904//EN"
 "http://www.w3.org/TR/2001/REC-SVG-20010904/DTD/svg10.dtd">
<svg version="1.0" xmlns="http://www.w3.org/2000/svg"
 width="446.000000pt" height="339.000000pt" viewBox="0 0 446.000000 339.000000"
 preserveAspectRatio="xMidYMid meet">

<g transform="translate(0.000000,339.000000) scale(0.100000,-0.100000)"
fill="#000000" stroke="none">
<path d="M959 3111 l-29 -29 0 -922 0 -922 29 -29 c28 -27 34 -29 114 -29 l85
0 4 -57 c4 -46 10 -61 32 -80 27 -23 28 -23 312 -23 l284 0 0 -111 c0 -109 0
-111 29 -140 l29 -29 381 0 381 0 32 29 33 29 3 368 c3 392 1 407 -46 444 -21
17 -40 20 -133 20 l-109 0 0 171 0 172 61 -67 c34 -36 82 -78 108 -93 25 -15
74 -53 109 -85 71 -66 132 -100 219 -122 155 -40 316 3 441 118 192 178 200
481 19 674 -30 31 -67 81 -82 110 -38 70 -139 163 -217 200 -205 97 -421 58
-585 -105 l-73 -72 0 160 c0 214 -7 229 -116 229 l-54 0 0 65 c0 74 -18 128
-48 144 -14 8 -205 11 -602 11 l-582 0 -29 -29z m1179 -43 c9 -9 12 -171 12
-670 0 -652 0 -657 21 -677 15 -13 20 -28 17 -52 l-3 -34 -165 -5 c-99 -3
-173 -10 -185 -17 -39 -22 -45 -51 -48 -233 l-2 -175 -41 -3 c-35 -3 -42 0
-47 17 -5 21 -11 21 -340 21 -292 0 -338 2 -351 16 -14 14 -16 110 -16 908 0
680 3 895 12 904 17 17 1119 17 1136 0z m652 -443 c0 -62 -1 -65 -24 -65 -13
0 -50 -13 -82 -30 l-59 -29 -42 41 c-48 47 -47 53 24 95 50 29 116 51 156 52
27 1 27 0 27 -64z m208 35 c59 -26 112 -62 112 -75 0 -6 -18 -28 -39 -49 l-39
-38 -63 31 c-34 17 -73 31 -86 31 -22 0 -23 3 -23 66 l0 67 46 -7 c25 -3 67
-15 92 -26z m-451 -178 l33 -33 -24 -37 c-14 -20 -30 -58 -37 -84 l-11 -48
-61 0 -60 0 6 54 c5 53 29 111 70 173 24 35 23 35 84 -25z m677 -32 c20 -38
46 -129 46 -160 0 -6 -29 -10 -64 -10 l-64 0 -7 38 c-4 20 -18 59 -33 85 l-26
48 45 45 44 44 18 -22 c10 -13 28 -43 41 -68z m-270 16 c72 -42 126 -136 126
-222 0 -47 -27 -116 -62 -158 -70 -85 -204 -111 -306 -60 -114 57 -166 200
-117 322 20 49 102 127 149 142 57 17 159 6 210 -24z m-435 -293 c7 -27 23
-66 36 -89 l24 -41 -45 -44 -45 -44 -20 25 c-32 42 -70 126 -76 169 -9 63 -1
71 60 71 l55 0 11 -47z m751 37 c0 -56 -46 -178 -87 -228 l-18 -23 -43 40
c-23 22 -42 43 -42 46 0 3 11 28 25 55 14 27 25 54 25 59 0 5 4 21 10 35 9 24
14 26 70 26 33 0 60 -4 60 -10z m-610 -231 c16 -12 50 -27 77 -34 l48 -12 3
-67 c3 -61 1 -67 -15 -63 -10 3 -34 9 -53 12 -40 8 -124 47 -160 75 l-25 19
45 45 c24 26 46 46 47 46 2 0 17 -10 33 -21z m450 -70 c0 -4 -21 -21 -47 -38
-43 -29 -93 -47 -175 -65 l-28 -6 0 64 0 65 53 15 c28 9 65 25 82 36 l30 20
42 -42 c24 -23 43 -45 43 -49z m-526 -349 l26 -10 0 -364 c0 -351 -1 -366 -19
-376 -13 -6 -146 -10 -365 -10 -300 0 -347 2 -360 16 -14 13 -16 61 -16 367 0
194 4 357 8 363 4 6 14 14 22 17 27 10 677 8 704 -3z"/>
<path d="M1116 2949 c-35 -41 -34 -83 3 -120 61 -60 151 -23 151 63 0 85 -100
122 -154 57z"/>
<path d="M1462 2533 c-163 -162 -242 -302 -242 -429 0 -69 13 -106 52 -140 64
-59 136 -69 214 -29 27 14 53 25 57 25 17 0 -6 -106 -34 -162 -16 -32 -29 -60
-29 -63 0 -3 43 -5 95 -5 59 0 95 4 95 10 0 6 -11 32 -24 58 -29 60 -50 142
-38 154 5 5 29 -2 58 -17 122 -66 256 9 272 152 7 61 -31 170 -91 262 -54 84
-244 281 -270 281 -10 0 -61 -44 -115 -97z"/>
<path d="M2757 2312 c-26 -26 -47 -57 -47 -68 0 -23 98 -124 121 -124 19 0
119 101 119 121 0 22 -102 119 -126 119 -11 0 -41 -22 -67 -48z"/>
<path d="M2014 1455 c-68 -35 -85 -121 -34 -178 34 -39 67 -49 114 -36 53 15
81 53 81 110 0 41 -5 53 -30 79 -38 37 -88 47 -131 25z m84 -67 c7 -7 12 -24
12 -38 0 -48 -45 -67 -82 -33 -22 20 -23 41 -1 65 18 21 53 24 71 6z"/>
<path d="M2340 1448 c-49 -33 -68 -90 -47 -140 19 -46 57 -71 108 -71 52 0 90
28 108 79 12 34 11 44 -2 76 -29 70 -108 96 -167 56z m94 -64 c9 -8 16 -24 16
-34 0 -10 -7 -26 -16 -34 -8 -9 -24 -16 -34 -16 -22 0 -50 26 -50 46 0 48 51
71 84 38z"/>
<path d="M1984 1096 c-26 -26 -34 -42 -34 -70 0 -131 161 -173 216 -58 37 79
-15 162 -102 162 -39 0 -51 -5 -80 -34z m107 -36 c22 -12 26 -59 7 -78 -17
-17 -48 -15 -70 5 -23 21 -23 38 2 63 23 23 33 24 61 10z"/>
<path d="M2340 1117 c-14 -7 -33 -29 -44 -51 -16 -32 -17 -44 -7 -75 34 -115
181 -118 220 -5 12 36 12 44 -4 77 -28 60 -103 85 -165 54z m92 -64 c36 -32
17 -83 -32 -83 -48 0 -67 45 -33 82 20 22 41 23 65 1z"/>
<path d="M290 1945 l0 -75 50 0 c38 0 50 4 50 15 0 10 -10 15 -30 15 -20 0
-30 5 -30 15 0 10 10 15 30 15 20 0 30 5 30 15 0 10 -10 15 -30 15 -20 0 -30
5 -30 15 0 10 10 15 30 15 20 0 30 5 30 15 0 11 -12 15 -50 15 l-50 0 0 -75z"/>
<path d="M452 2008 c-23 -23 -14 -58 18 -69 41 -15 41 -44 0 -36 -35 7 -49 -8
-21 -22 30 -16 56 -13 75 8 24 26 13 57 -24 70 -38 13 -39 31 -1 31 34 0 49
15 25 24 -25 10 -59 7 -72 -6z"/>
<path d="M570 2005 c0 -8 9 -15 20 -15 18 0 20 -7 20 -60 0 -47 3 -60 15 -60
12 0 15 13 15 60 0 53 2 60 20 60 11 0 20 7 20 15 0 12 -13 15 -55 15 -42 0
-55 -3 -55 -15z"/>
<path d="M3677 2002 c-23 -25 -21 -35 3 -29 18 5 20 0 20 -49 0 -41 4 -54 15
-54 12 0 15 15 15 75 0 66 -2 75 -18 75 -11 0 -26 -8 -35 -18z"/>
<path d="M3817 2002 c-24 -26 -21 -47 10 -72 20 -16 24 -23 15 -32 -17 -17
-15 -28 6 -28 40 0 80 108 50 138 -18 18 -63 14 -81 -6z m63 -32 c0 -21 -33
-29 -45 -10 -9 15 4 30 26 30 12 0 19 -7 19 -20z"/>
<path d="M3976 2004 c-19 -18 -19 -20 -6 -44 7 -13 7 -21 0 -25 -17 -10 -11
-44 9 -55 46 -24 103 8 82 48 -5 10 -7 29 -4 40 11 45 -47 71 -81 36z m54 -29
c0 -8 -6 -15 -14 -15 -17 0 -28 14 -19 24 12 12 33 6 33 -9z m0 -61 c0 -8 -9
-14 -20 -14 -22 0 -28 26 -7 33 16 6 27 -1 27 -19z"/>
<path d="M4135 1977 c-14 -24 -25 -51 -25 -60 0 -25 45 -50 75 -43 47 12 51
76 5 91 -18 6 -19 8 -4 31 15 23 15 24 -4 24 -14 0 -30 -14 -47 -43z m55 -57
c0 -23 -35 -28 -43 -6 -7 18 1 26 25 26 11 0 18 -7 18 -20z"/>
<path d="M704 1899 c-3 -6 -2 -15 4 -21 13 -13 32 -2 32 18 0 16 -26 19 -36 3z"/>
<path d="M2645 536 c-18 -27 -11 -52 17 -67 45 -24 91 24 63 67 -20 31 -59 32
-80 0z"/>
<path d="M947 543 c-4 -3 -7 -94 -7 -201 l0 -194 118 4 c90 3 123 7 143 21 28
19 49 56 49 88 0 31 -28 77 -51 84 -21 7 -21 7 5 34 54 56 22 143 -59 161 -46
11 -188 13 -198 3z m174 -83 c23 -13 25 -55 3 -64 -9 -3 -33 -6 -55 -6 -39 0
-39 0 -39 40 0 39 1 40 36 40 19 0 44 -5 55 -10z m3 -150 c20 -7 26 -17 26
-39 0 -34 -14 -41 -76 -41 l-44 0 0 38 c0 21 3 42 7 45 9 10 58 8 87 -3z"/>
<path d="M1984 523 c3 -15 27 -104 54 -198 l47 -170 49 0 49 0 36 123 c19 67
38 122 42 122 3 0 22 -55 41 -122 l35 -123 49 0 49 0 52 185 c29 102 53 191
53 198 0 9 -13 12 -47 10 l-47 -3 -32 -130 c-17 -72 -34 -123 -37 -115 -3 8
-18 60 -32 115 -14 55 -28 108 -31 118 -4 13 -16 17 -49 17 -53 0 -53 1 -90
-142 -15 -60 -31 -108 -34 -108 -3 0 -19 55 -36 123 l-30 122 -49 3 -49 3 7
-28z"/>
<path d="M1767 494 c-4 -4 -7 -22 -7 -41 0 -26 -4 -33 -20 -33 -28 0 -29 -60
-1 -67 16 -4 19 -16 23 -83 4 -89 19 -116 74 -126 50 -9 74 2 74 37 0 21 -5
29 -18 29 -31 0 -42 22 -42 82 0 58 0 58 30 58 28 0 30 3 30 35 0 32 -2 35
-29 35 -27 0 -30 3 -33 38 -3 35 -5 37 -38 40 -20 2 -39 0 -43 -4z"/>
<path d="M1430 413 c-99 -51 -107 -189 -14 -250 40 -26 134 -24 170 3 15 11
29 25 31 30 4 13 -54 47 -61 35 -12 -19 -66 -23 -91 -7 -43 29 -29 36 70 36
108 0 113 4 96 67 -23 86 -121 128 -201 86z m101 -53 c10 -6 19 -17 19 -25 0
-11 -13 -15 -55 -15 -59 0 -68 10 -33 34 26 19 42 20 69 6z"/>
<path d="M2898 419 c-30 -12 -62 -70 -53 -98 8 -27 31 -44 84 -61 28 -9 46
-21 46 -30 0 -19 -47 -25 -75 -10 -18 10 -26 8 -46 -11 -30 -28 -20 -42 41
-59 87 -24 165 12 165 78 0 20 -4 42 -8 48 -9 14 -59 39 -94 48 -41 10 -36 36
6 36 19 0 38 -5 41 -11 7 -11 55 27 55 43 0 14 -66 38 -102 37 -18 0 -45 -5
-60 -10z"/>
<path d="M3241 412 c-47 -23 -72 -61 -78 -113 -6 -62 20 -108 77 -136 55 -28
92 -29 147 -2 50 24 54 43 15 63 -23 12 -30 12 -47 0 -10 -8 -28 -14 -40 -14
-23 0 -65 26 -65 40 0 5 44 11 98 12 91 3 97 4 100 25 2 12 -5 42 -16 66 -32
71 -117 98 -191 59z m100 -52 c10 -6 19 -17 19 -25 0 -11 -13 -15 -55 -15 -59
0 -68 10 -33 34 26 19 42 20 69 6z"/>
<path d="M2640 285 l0 -135 45 0 45 0 0 135 0 135 -45 0 -45 0 0 -135z"/>
</g>
</svg>
